nColumns=19
nRows=77
DataType=double
version=3
OpenSimVersion=4.1
endheader
time	ground_force_calcn_r_vx	ground_force_calcn_r_vy	ground_force_calcn_r_vz	ground_force_calcn_r_px	ground_force_calcn_r_py	ground_force_calcn_r_pz	ground_force_calcn_r_mx	ground_force_calcn_r_my	ground_force_calcn_r_mz	ground_force_calcn_l_vx	ground_force_calcn_l_vy	ground_force_calcn_l_vz	ground_force_calcn_l_px	ground_force_calcn_l_py	ground_force_calcn_l_pz	ground_force_calcn_l_mx	ground_force_calcn_l_my	ground_force_calcn_l_mz
6.44	-3.30054	350.182	2.64755	-0.233237	0	-0.414628	0.0671687	-7.1265	-0.0538798	-7.94727	318.973	-7.22003	-0.225913	0	-0.757458	-0.203292	8.15935	-0.184689
6.45	-3.1345	348.388	2.7027	-0.233225	0	-0.414647	0.0640658	-7.1207	-0.0552404	-8.08017	317.125	-6.99498	-0.225807	0	-0.757568	-0.208085	8.16676	-0.180138
6.46	-2.98274	346.449	2.72034	-0.23325	0	-0.414673	0.061169	-7.10485	-0.0557878	-8.19128	315.116	-6.75547	-0.225732	0	-0.757671	-0.212217	8.16395	-0.175019
6.47	-2.85231	344.374	2.7064	-0.233309	0	-0.414706	0.0586236	-7.07793	-0.0556247	-8.27792	312.969	-6.51053	-0.225689	0	-0.757762	-0.215565	8.15003	-0.169541
6.48	-2.74268	342.182	2.66909	-0.2334	0	-0.414745	0.0564222	-7.03934	-0.0549083	-8.33747	310.714	-6.26829	-0.225679	0	-0.757836	-0.21801	8.12461	-0.163904
6.49	-2.64621	339.899	2.61681	-0.233528	0	-0.41479	0.0544112	-6.98899	-0.0538066	-8.36709	308.392	-6.03495	-0.225709	0	-0.757885	-0.219434	8.08785	-0.158272
6.5	-2.55085	337.556	2.55684	-0.233696	0	-0.414845	0.0523481	-6.92727	-0.0524711	-8.36332	306.055	-5.81443	-0.225782	0	-0.757908	-0.219714	8.0404	-0.152751
6.51	-2.44376	335.184	2.49471	-0.23391	0	-0.41491	0.0499792	-6.8551	-0.0510211	-8.32175	303.76	-5.60877	-0.225905	0	-0.757902	-0.218711	7.98338	-0.147409
6.52	-2.3137	332.816	2.43441	-0.234171	0	-0.414986	0.0470907	-6.77381	-0.0495477	-8.23714	301.57	-5.4185	-0.226085	0	-0.757865	-0.216277	7.91812	-0.14227
6.53	-2.15192	330.48	2.37755	-0.234482	0	-0.415074	0.0435294	-6.68501	-0.0480936	-8.10412	299.539	-5.24203	-0.226327	0	-0.7578	-0.212281	7.8462	-0.137311
6.54	-1.95275	328.203	2.32277	-0.234841	0	-0.415175	0.0392121	-6.59045	-0.0466421	-7.91902	297.715	-5.07509	-0.226633	0	-0.757706	-0.206657	7.76924	-0.132441
6.55	-1.71417	326.007	2.26655	-0.235245	0	-0.415286	0.0341348	-6.49189	-0.0451346	-7.68118	296.129	-4.91054	-0.227001	0	-0.75759	-0.199437	7.68879	-0.127499
6.56	-1.43717	323.91	2.20449	-0.235687	0	-0.415404	0.0283564	-6.39099	-0.0434963	-7.39275	294.803	-4.73875	-0.227429	0	-0.757457	-0.190743	7.60631	-0.122266
6.57	-1.12415	321.926	2.13202	-0.236162	0	-0.415529	0.0219623	-6.28941	-0.0416529	-7.05825	293.751	-4.54834	-0.227909	0	-0.757314	-0.180767	7.52318	-0.116486
6.58	-0.778257	320.07	2.04495	-0.23666	0	-0.415654	0.0150481	-6.18877	-0.0395404	-6.68486	292.973	-4.32711	-0.228433	0	-0.757172	-0.169774	7.44058	-0.109895
6.59	-0.404174	318.36	1.93917	-0.237176	0	-0.415778	0.0077325	-6.09074	-0.0370994	-6.28348	292.462	-4.06302	-0.22899	0	-0.757036	-0.158116	7.35942	-0.102241
6.6	-0.00869593	316.816	1.81095	-0.237702	0	-0.415901	0.000164602	-5.9969	-0.0342789	-5.86849	292.195	-3.74599	-0.229564	0	-0.756913	-0.14622	7.28038	-0.0933357
6.61	0.399821	315.459	1.65654	-0.23823	0	-0.416018	-0.00748864	-5.90854	-0.0310269	-5.45579	292.145	-3.36933	-0.230145	0	-0.75681	-0.134534	7.20399	-0.0830841
6.62	0.812257	314.306	1.47096	-0.238754	0	-0.416132	-0.0150571	-5.82639	-0.0272677	-5.06063	292.275	-2.93081	-0.23072	0	-0.75673	-0.123464	7.13062	-0.0715028
6.63	1.21954	313.366	1.24754	-0.239269	0	-0.41624	-0.0223803	-5.75069	-0.0228941	-4.69566	292.545	-2.43241	-0.231279	0	-0.756674	-0.113326	7.06036	-0.0587044
6.64	1.61425	312.641	0.978499	-0.239772	0	-0.416344	-0.0293339	-5.68127	-0.0177811	-4.36944	292.917	-1.87985	-0.231812	0	-0.756645	-0.104316	6.99308	-0.0448792
6.65	1.99104	312.128	0.656387	-0.24026	0	-0.41644	-0.0358331	-5.61743	-0.0118131	-4.0862	293.354	-1.28232	-0.232312	0	-0.756637	-0.0965054	6.92826	-0.0302851
6.66	2.34581	311.814	0.275043	-0.24073	0	-0.416528	-0.0418127	-5.55791	-0.00490249	-3.84686	293.822	-0.651582	-0.232775	0	-0.756647	-0.0898794	6.86495	-0.0152238
6.67	2.67549	311.681	-0.170113	-0.241181	0	-0.416606	-0.0472206	-5.50097	0.00300239	-3.6503	294.288	-0.000679235	-0.233195	0	-0.756669	-0.0843717	6.80207	-1.56996e-05
6.68	2.9794	311.709	-0.681931	-0.241616	0	-0.41667	-0.0520427	-5.44477	0.0119116	-3.49285	294.724	0.656712	-0.23357	0	-0.756697	-0.0798602	6.73853	0.015015
6.69	3.25984	311.877	-1.26122	-0.242035	0	-0.416721	-0.056313	-5.3876	0.0217873	-3.3683	295.104	1.30722	-0.233906	0	-0.756726	-0.0761692	6.67334	0.0295609
6.7	3.5214	312.168	-1.90673	-0.242445	0	-0.41676	-0.0601012	-5.32789	0.0325429	-3.2683	295.409	1.93913	-0.234206	0	-0.756748	-0.0730841	6.60579	0.0433619
6.71	3.77065	312.566	-2.61599	-0.242852	0	-0.41679	-0.0635058	-5.26428	0.0440588	-3.18293	295.625	2.54341	-0.234482	0	-0.75676	-0.0703648	6.53537	0.0562272
6.72	4.01289	313.058	-3.38531	-0.243259	0	-0.416814	-0.0665983	-5.19554	0.0561829	-3.10184	295.74	3.11443	-0.234741	0	-0.756756	-0.0677729	6.46168	0.0680478
6.73	4.24951	313.622	-4.20717	-0.243669	0	-0.416834	-0.0693835	-5.12063	0.0686922	-3.0162	295.744	3.65026	-0.234993	0	-0.756735	-0.0651113	6.38426	0.0787987
6.74	4.47958	314.233	-5.06843	-0.244079	0	-0.416854	-0.071832	-5.03887	0.0812745	-2.92068	295.629	4.15182	-0.235245	0	-0.756695	-0.0622673	6.30265	0.0885145
6.75	4.70178	314.864	-5.9498	-0.244488	0	-0.416875	-0.0739145	-4.94983	0.0935341	-2.81374	295.388	4.62137	-0.235501	0	-0.756636	-0.0592163	6.21657	0.0972589
6.76	4.9157	315.479	-6.82807	-0.244893	0	-0.416904	-0.075622	-4.85326	0.105042	-2.69623	295.016	5.06166	-0.235762	0	-0.75656	-0.0559866	6.12595	0.105104
6.77	5.12151	316.044	-7.68053	-0.245293	0	-0.416944	-0.0769599	-4.74913	0.115414	-2.57022	294.513	5.47481	-0.23603	0	-0.756467	-0.0526313	6.03086	0.11211
6.78	5.31916	316.519	-8.48933	-0.245684	0	-0.416995	-0.0779348	-4.63755	0.124383	-2.43869	293.883	5.86219	-0.236303	0	-0.756362	-0.0492208	5.93152	0.118318
6.79	5.50707	316.865	-9.24361	-0.246061	0	-0.417059	-0.0785365	-4.51882	0.131823	-2.30602	293.132	6.22517	-0.236574	0	-0.756246	-0.0458502	5.82829	0.123774
6.8	5.68086	317.04	-9.93872	-0.246418	0	-0.417132	-0.0787224	-4.39337	0.137726	-2.17805	292.273	6.56611	-0.236838	0	-0.756122	-0.0426385	5.72166	0.128541
6.81	5.83378	317.007	-10.5752	-0.246749	0	-0.417212	-0.0784302	-4.26189	0.142175	-2.0616	291.319	6.88899	-0.237087	0	-0.755996	-0.0397162	5.61219	0.132715
6.82	5.9572	316.743	-11.1577	-0.247047	0	-0.417297	-0.0775896	-4.12542	0.145323	-1.96391	290.284	7.19896	-0.237315	0	-0.755872	-0.0372138	5.50056	0.136412
6.83	6.04222	316.235	-11.6929	-0.247308	0	-0.417381	-0.0761483	-3.98542	0.147362	-1.89204	289.184	7.50177	-0.237518	0	-0.755754	-0.0352494	5.3876	0.139761
6.84	6.08225	315.49	-12.1884	-0.247532	0	-0.417464	-0.0741006	-3.84364	0.148493	-1.85148	288.038	7.80377	-0.237696	0	-0.755644	-0.0339022	5.27422	0.142894
6.85	6.07426	314.527	-12.6513	-0.247721	0	-0.417544	-0.0714955	-3.70206	0.148909	-1.84461	286.865	8.11199	-0.23785	0	-0.755548	-0.0331884	5.16131	0.145952
6.86	6.01908	313.378	-13.0877	-0.247884	0	-0.417623	-0.0684311	-3.5628	0.148794	-1.86972	285.689	8.43401	-0.23799	0	-0.755468	-0.0330485	5.04974	0.149077
6.87	5.92107	312.08	-13.5029	-0.248031	0	-0.417701	-0.065038	-3.42794	0.148319	-1.92112	284.534	8.77738	-0.238126	0	-0.755406	-0.0333562	4.94035	0.152401
6.88	5.78674	310.676	-13.9019	-0.248174	0	-0.417782	-0.061455	-3.29937	0.147638	-1.9902	283.429	9.14854	-0.238271	0	-0.755366	-0.0339432	4.83392	0.15603
6.89	5.62309	309.206	-14.2898	-0.248326	0	-0.41787	-0.0578054	-3.17864	0.146899	-2.06869	282.4	9.55146	-0.23844	0	-0.755349	-0.0346573	4.73112	0.160018
6.9	5.43487	307.709	-14.6718	-0.248499	0	-0.417966	-0.0541687	-3.0669	0.146232	-2.15289	281.472	9.98769	-0.238639	0	-0.755354	-0.0354323	4.63248	0.164378
6.91	5.2236	306.221	-15.0523	-0.2487	0	-0.418075	-0.0505767	-2.96494	0.145741	-2.24365	280.658	10.457	-0.238879	0	-0.755378	-0.0362817	4.53847	0.169098
6.92	4.98989	304.772	-15.4338	-0.24894	0	-0.418199	-0.0470394	-2.87307	0.145494	-2.34383	279.963	10.9576	-0.239163	0	-0.755421	-0.0372497	4.44936	0.174145
6.93	4.73548	303.388	-15.8172	-0.249226	0	-0.418343	-0.0435663	-2.79116	0.145518	-2.45643	279.389	11.4864	-0.239499	0	-0.755477	-0.0383799	4.36524	0.179466
6.94	4.4636	302.09	-16.2016	-0.249565	0	-0.418504	-0.040173	-2.71886	0.145816	-2.58303	278.93	12.0387	-0.23989	0	-0.755543	-0.0396917	4.28614	0.184991
6.95	4.1781	300.892	-16.5853	-0.249963	0	-0.418687	-0.0368749	-2.6556	0.146378	-2.72263	278.579	12.6089	-0.240343	0	-0.755614	-0.0411639	4.2119	0.190637
6.96	3.88106	299.794	-16.9663	-0.250416	0	-0.418889	-0.0336674	-2.60065	0.147179	-2.87146	278.322	13.1907	-0.24086	0	-0.755687	-0.0427342	4.14209	0.196309
6.97	3.57248	298.78	-17.3428	-0.250924	0	-0.419111	-0.0305263	-2.55303	0.148192	-3.02259	278.136	13.7785	-0.24145	0	-0.755756	-0.0442963	4.0761	0.201925
6.98	3.25293	297.822	-17.7138	-0.251481	0	-0.419351	-0.0274319	-2.51153	0.14938	-3.16567	277.995	14.3681	-0.242112	0	-0.755819	-0.0457002	4.0132	0.207421
6.99	2.92552	296.882	-18.0787	-0.252085	0	-0.41961	-0.0243863	-2.47472	0.150699	-3.2886	277.867	14.9571	-0.242852	0	-0.755873	-0.0467778	3.95245	0.212753
7	2.59544	295.918	-18.4377	-0.252731	0	-0.419883	-0.0214104	-2.4411	0.152097	-3.38007	277.717	15.5437	-0.24367	0	-0.755914	-0.0473793	3.89283	0.21788
7.01	2.26909	294.885	-18.7899	-0.253415	0	-0.420167	-0.0185378	-2.40912	0.153508	-3.43134	277.509	16.1259	-0.244564	0	-0.755943	-0.0473987	3.83336	0.222754
7.02	1.95368	293.737	-19.1329	-0.254134	0	-0.42046	-0.0158118	-2.37732	0.154849	-3.43771	277.207	16.7017	-0.245528	0	-0.755959	-0.0467913	3.77311	0.227329
7.03	1.65698	292.422	-19.4621	-0.254888	0	-0.42076	-0.0132845	-2.34443	0.156033	-3.39966	276.776	17.2694	-0.246551	0	-0.755966	-0.0455845	3.71116	0.231558
7.04	1.38704	290.889	-19.7706	-0.255671	0	-0.421065	-0.0110117	-2.30937	0.156958	-3.32306	276.185	17.8276	-0.247619	0	-0.755963	-0.0438771	3.64668	0.235392
7.05	1.15231	289.089	-20.0487	-0.256482	0	-0.421377	-0.00905308	-2.27121	0.157512	-3.21789	275.402	18.3742	-0.248717	0	-0.755954	-0.0418194	3.5791	0.238789
7.06	0.960838	286.978	-20.2868	-0.257313	0	-0.421696	-0.00746374	-2.22923	0.157587	-3.09589	274.4	18.9068	-0.249824	0	-0.755944	-0.0395781	3.50795	0.241706
7.07	0.817586	284.525	-20.4753	-0.258156	0	-0.422018	-0.00627267	-2.18293	0.15709	-2.96789	273.16	19.4231	-0.250925	0	-0.755931	-0.0372966	3.43272	0.244085
7.08	0.723153	281.711	-20.6059	-0.258994	0	-0.422343	-0.00547284	-2.13199	0.155946	-2.84132	271.668	19.9208	-0.252006	0	-0.755922	-0.0350673	3.3529	0.24586
7.09	0.674673	278.528	-20.6722	-0.259814	0	-0.422668	-0.0050294	-2.07631	0.154103	-2.71936	269.923	20.3974	-0.253056	0	-0.755915	-0.0329246	3.26809	0.246962
7.1	0.666842	274.981	-20.6717	-0.260599	0	-0.422991	-0.00488868	-2.01591	0.151546	-2.60065	267.927	20.8503	-0.25407	0	-0.755912	-0.0308476	3.17801	0.247315
7.11	0.692911	271.081	-20.6065	-0.261339	0	-0.423308	-0.00498677	-1.95092	0.148301	-2.4788	265.688	21.2759	-0.255046	0	-0.755911	-0.02876	3.08261	0.24685
7.12	0.746437	266.84	-20.4829	-0.26203	0	-0.423616	-0.00526306	-1.88147	0.144423	-2.34314	263.22	21.6708	-0.255984	0	-0.755911	-0.0265443	2.9819	0.245499
7.13	0.823335	262.277	-20.3108	-0.262666	0	-0.423911	-0.00567451	-1.80764	0.139984	-2.184	260.544	22.0317	-0.25688	0	-0.75591	-0.0241058	2.87574	0.243173
7.14	0.920796	257.411	-20.1025	-0.263243	0	-0.424187	-0.00618738	-1.7297	0.13508	-2.00071	257.686	22.3556	-0.257715	0	-0.75591	-0.0214596	2.76395	0.239786
7.15	1.03314	252.266	-19.8692	-0.263755	0	-0.424439	-0.00675003	-1.64819	0.129816	-1.80299	254.669	22.6415	-0.258463	0	-0.755909	-0.0187361	2.64643	0.235282
7.16	1.15125	246.87	-19.6207	-0.264191	0	-0.424662	-0.00729301	-1.56389	0.124295	-1.60707	251.514	22.8895	-0.259097	0	-0.75591	-0.0161229	2.5233	0.229638
7.17	1.26534	241.264	-19.366	-0.264541	0	-0.42485	-0.00775082	-1.47786	0.118626	-1.43035	248.24	23.0998	-0.259588	0	-0.755915	-0.0138008	2.39514	0.222879
7.18	1.36791	235.507	-19.115	-0.264793	0	-0.425001	-0.00808089	-1.39126	0.112922	-1.28649	244.869	23.2735	-0.259922	0	-0.755925	-0.0118898	2.26309	0.215095
7.19	1.45534	229.676	-18.88	-0.264938	0	-0.425111	-0.00827104	-1.3053	0.1073	-1.18216	241.425	23.413	-0.260091	0	-0.755941	-0.0104234	2.12869	0.206437
7.2	1.52601	223.865	-18.6752	-0.264968	0	-0.425174	-0.00832421	-1.22116	0.101871	-1.11648	237.942	23.5221	-0.2601	0	-0.755961	-0.00935533	1.99379	0.197099
